<svg width="63" height="70" viewBox="0 0 63 70" fill="none" xmlns="http://www.w3.org/2000/svg">
<path d="M55.6055 26.8017V43.2018M26.38 59.8634L11.9914 51.6533M7.03893 43.2018L7.03893 26.8017M11.9914 18.3301L26.38 10.12M11.9917 46.0186L26.3803 37.8085M50.6534 46.0186L36.2852 37.8085M31.3327 29.357V12.9569M36.2848 10.12L43.4791 14.225L50.6531 18.3301L36.2848 10.12ZM50.6531 51.6533L43.4791 55.7584L36.2848 59.8634L50.6531 51.6533ZM31.334 29.3559C34.493 29.3559 37.0405 31.8712 37.0405 34.9903C37.0405 38.1093 34.493 40.6448 31.334 40.6448C28.175 40.6448 25.6071 38.1093 25.6071 34.9903C25.6071 31.8712 28.175 29.3559 31.334 29.3559ZM7.04051 15.5114C10.1995 15.5114 12.7674 18.0268 12.7674 21.1458C12.7674 24.2648 10.1995 26.8003 7.04051 26.8003C3.88154 26.8003 1.33398 24.2648 1.33398 21.1458C1.33398 18.0268 3.88154 15.5114 7.04051 15.5114ZM31.334 1.66699C34.493 1.66699 37.0405 4.18234 37.0405 7.30136C37.0405 10.4204 34.493 12.9559 31.334 12.9559C28.175 12.9559 25.6071 10.4204 25.6071 7.30136C25.6071 4.18234 28.175 1.66699 31.334 1.66699ZM55.6071 15.5114C58.766 15.5114 61.334 18.0268 61.334 21.1458C61.334 24.2648 58.766 26.8003 55.6071 26.8003C52.4685 26.8003 49.9006 24.2648 49.9006 21.1458C49.9006 18.0268 52.4685 15.5114 55.6071 15.5114ZM55.6071 43.2004C58.766 43.2004 61.334 45.7157 61.334 48.8347C61.334 51.9537 58.766 54.4892 55.6071 54.4892C52.4685 54.4892 49.9006 51.9537 49.9006 48.8347C49.9006 45.7157 52.4685 43.2004 55.6071 43.2004ZM31.334 57.0448C34.493 57.0448 37.0405 59.5601 37.0405 62.6792C37.0405 65.7982 34.493 68.3337 31.334 68.3337C28.175 68.3337 25.6071 65.7982 25.6071 62.6792C25.6071 59.5601 28.175 57.0448 31.334 57.0448ZM7.04051 43.2004C10.1995 43.2004 12.7674 45.7157 12.7674 48.8347C12.7674 51.9537 10.1995 54.4892 7.04051 54.4892C3.88154 54.4892 1.33398 51.9537 1.33398 48.8347C1.33398 45.7157 3.88154 43.2004 7.04051 43.2004Z" stroke="white" stroke-width="2"/>
</svg>
