<svg width="160" height="56" viewBox="0 0 160 56" fill="none" xmlns="http://www.w3.org/2000/svg">
<path d="M27.7246 8.18534C28.5389 8.5194 29.2905 7.47545 30.1048 7.30842C31.2114 7.05787 36.4521 4.74029 37.1202 4.51062C37.5378 4.36447 40.9828 6.64029 41.1916 7.89303C41.296 8.54028 41.3795 9.04138 41.7762 9.56336C42.3817 10.3776 44.0312 11.5886 45.0334 11.8392C45.5971 11.9853 46.474 11.5469 46.474 11.5469C46.474 11.5469 47.1839 12.0688 47.1839 12.1106C47.1839 12.3612 46.5367 13.7392 46.1191 14.1568C44.3235 15.9524 41.3795 15.7853 39.062 15.5974C38.0389 15.5139 36.8696 15.6392 35.9092 15.2425C35.5334 15.0963 34.6773 12.8205 34.4686 12.4238C34.3224 12.1106 34.0718 11.8392 33.9257 11.526C33.9048 11.4842 33.9257 11.2546 33.9257 11.3798L27.7246 8.18534Z" fill="#001048"/>
<path d="M49.0838 22.9463C49.4387 24.3034 49.8981 24.5957 50.3365 25.8276C50.42 26.0573 50.2112 27.4979 50.0442 27.8111C49.7519 28.4166 48.2904 28.8968 47.6849 28.9595C47.4343 28.9803 46.1189 28.2287 45.9102 28.1034L49.0838 22.9463Z" fill="#F59D77"/>
<path d="M46.6627 29.3565C45.5979 29.962 39.1671 30.7345 38.2484 30.8598C38.2276 30.8598 38.2067 30.8598 38.1858 30.8807C38.1441 30.8807 38.1232 30.9016 38.0814 30.9016C35.6386 31.4444 36.2441 36.5598 37.8517 37.1235C38.4364 37.3323 37.9144 37.6664 37.3715 38.2092C36.8704 38.7103 36.2441 38.9609 35.5968 39.1279C34.0726 39.5455 32.4649 39.5037 32.0891 41.362C32.0474 41.5708 32.0265 41.884 32.0056 42.3015C31.9221 44.473 32.1518 49.0664 32.0056 51.6971C31.254 51.7598 30.5232 51.7806 29.7715 51.7806C29.0199 51.7806 28.2682 51.7389 27.5166 51.6971C22.4012 51.2795 17.7034 49.4839 13.7573 46.6861C13.5485 46.5191 13.3188 46.373 13.11 46.2059C10.7298 44.4103 8.66278 42.2389 6.97158 39.7752C6.36608 38.9818 5.84411 38.1466 5.38477 37.2906C6.09465 36.6642 6.8463 35.8708 7.59795 34.9521C8.20344 34.2213 8.80894 33.3862 9.39355 32.5092C11.7738 29.0016 13.8617 24.5126 14.5089 20.1906C14.6133 19.5225 15.7825 16.8499 16.3254 14.6994C16.3463 14.6368 16.3463 14.595 16.3672 14.5324C16.8265 12.5697 16.221 12.2983 17.7243 10.3148C19.0814 8.51918 21.7122 7.78842 24.4056 7.49611C26.4518 7.28732 28.5188 7.3082 30.0638 7.3082C31.0034 7.3082 32.4858 7.78842 33.7177 8.16424C34.0726 8.26863 34.3858 8.37303 34.6781 8.45655C36.3484 8.93677 36.9331 9.83457 37.6012 10.8368C38.3111 11.8807 39.0627 13.0499 38.8957 13.9269C38.5199 15.9313 39.4594 19.2719 40.6078 19.4389C41.4012 19.5433 42.988 19.6895 44.533 19.94C46.3286 20.2323 48.0407 20.6291 48.3122 21.1719C48.6462 21.84 49.1264 27.9576 46.6627 29.3565Z" fill="#FFCB9A"/>
<path d="M44.5327 19.9395C42.758 21.7977 39.9184 22.9878 36.7031 22.9878C31.2954 22.9878 26.9316 19.5845 26.9316 15.4087C26.9316 12.0472 29.7712 9.16589 33.6965 8.18457C34.0514 8.28897 34.3646 8.39336 34.6569 8.47688C36.3272 8.9571 36.9118 9.8549 37.58 10.8571C38.2899 11.901 39.0415 13.0703 38.8745 13.9472C38.4987 15.9516 39.4382 19.2922 40.5866 19.4593C41.4008 19.5428 42.9877 19.6889 44.5327 19.9395Z" fill="#FFE0B4"/>
<path fill-rule="evenodd" clip-rule="evenodd" d="M39.9194 30.1917C39.4183 30.5257 38.8545 30.7345 38.2491 30.8598C38.2282 30.8598 38.2073 30.8598 38.1864 30.8807C38.1447 30.8807 38.1238 30.9016 38.082 30.9016C36.8293 31.0895 35.4513 30.9224 34.3029 30.7763C31.9853 30.5048 29.793 29.8994 27.559 29.2312C24.9282 28.4378 21.7546 27.4565 20.4392 24.9719C20.3348 25.0554 20.2304 25.1598 20.1469 25.2433C19.8963 25.4939 19.5831 26.5378 19.4788 26.9345C19.1029 28.4796 19.2491 29.3565 19.6458 30.2334C22.3809 30.6092 25.1161 30.7763 27.8095 31.4026C30.0018 31.9037 34.0941 32.5301 35.4721 34.5345C36.1611 35.5367 36.0985 37.1653 35.8688 38.2927C35.8271 38.5433 35.7436 38.8774 35.5765 39.1488C34.0524 39.5664 32.4447 39.5246 32.0688 41.3829C32.0271 41.5916 32.0062 41.9048 31.9853 42.3224C30.7743 41.2367 29.5634 39.9213 29.2502 39.3993C26.6194 38.7312 24.0722 37.6455 21.6711 36.3301C21.2535 36.4554 20.648 36.3927 20.4601 36.7895C20.293 37.1235 21.1282 38.3971 21.2744 38.6268C22.2557 40.1719 25.4502 49.8598 26.8073 51.0707C27.0579 51.3004 27.2875 51.5092 27.4754 51.6971C22.3601 51.2795 17.6623 49.4839 13.7161 46.6861C13.5073 46.5191 13.2777 46.373 13.0689 46.2059C9.91613 43.8257 7.28537 40.7774 5.40625 37.2905C6.11614 36.6642 6.86779 35.8708 7.61943 34.9521C8.7469 34.1587 9.54031 33.3653 9.43591 32.5928C9.43591 32.5719 9.43591 32.5301 9.41503 32.5092C11.7744 29.0016 13.8623 24.5125 14.5095 20.1906C14.6139 19.5224 15.7832 16.8499 16.326 14.6994C16.848 12.5906 16.1799 12.34 17.7249 10.3148C19.0821 8.51917 21.7128 7.7884 24.4062 7.49609L27.8095 8.56093C27.371 8.56093 26.682 8.43565 26.2853 8.56093C24.2809 9.22906 23.0073 13.4675 23.4875 15.3049C23.6337 15.9312 23.7798 16.5785 23.9469 17.184C24.1139 17.8104 23.7381 19.2301 25.0117 20.3576C25.0744 20.4202 27.8513 20.7543 29.2919 20.9631C31.2337 21.2554 33.1963 21.5686 35.1381 21.9653C38.5205 22.6543 40.1699 23.0928 40.6919 26.9972C40.8381 28.1873 41.0677 29.4191 39.9194 30.1917Z" fill="url(#paint0_linear_513_6581)"/>
<path d="M20.2716 18.9168C20.2716 22.8629 15.5111 24.1783 14.4672 27.3311C14.1331 28.3541 17.2441 30.7135 16.9518 32.8223C16.7012 34.5552 14.0287 37.186 12.2957 37.4783C11.7738 37.5618 9.143 38.8146 6.90894 39.775C6.36608 38.9816 5.84411 38.1464 5.38477 37.2904C6.09465 36.664 6.8463 35.8706 7.59795 34.9519C8.20344 34.2212 8.80894 33.386 9.39355 32.5091C11.7738 29.0014 13.8617 24.5124 14.5089 20.1904C14.6133 19.5223 15.7825 16.8498 16.3254 14.6992C16.3463 14.6366 16.3463 14.5948 16.3672 14.5322L18.3507 10.6904C18.9979 11.6717 19.7913 16.2025 20.1672 17.33C20.3342 17.852 20.2716 18.3948 20.2716 18.9168Z" fill="#001048"/>
<path d="M23.2148 8.79057C24.6137 8.58178 29.5203 8.64441 30.5852 9.83452C31.3368 10.6906 32.5269 16.9752 32.7983 17.518C33.1324 18.207 37.4544 18.9378 38.1434 19.1675C38.2478 19.2092 37.1621 18.4367 37.0786 18.2697C36.7236 17.6642 36.5357 17.1213 36.4104 16.4323C36.2225 15.3048 36.2434 14.1565 36.0972 13.0708C36.0137 12.4444 36.0972 9.37518 35.8885 8.76969C35.0742 6.30596 33.7588 6.51475 31.3577 5.32464C30.8148 5.05321 29.3115 4.09277 28.8104 4.09277L23.2148 8.79057Z" fill="#000F42"/>
<path d="M37.8318 37.123C38.4165 37.3318 37.8945 37.6659 37.3516 38.2087C37.289 38.2714 37.2055 38.334 37.1428 38.3967C35.3264 38.6681 33.0923 38.5637 31.3802 38.2923C28.4154 37.812 24.4692 36.434 22.0055 34.6175C21.3374 34.1164 18.122 28.2285 18.5604 26.9132C18.7484 26.3494 19.9385 24.6582 20.4187 24.2824C21.6714 23.3428 23.133 26.0154 28.5198 28.1868C31.9231 29.5439 36.934 30.7549 39.0428 30.734C38.5835 30.7967 38.2703 30.8384 38.1659 30.8384C35.6187 31.3186 36.2241 36.5384 37.8318 37.123Z" fill="#9F293D"/>
<path d="M32.5286 29.5657C32.5286 29.7327 32.5494 29.8788 32.5494 30.0459C32.5494 33.303 30.5868 36.1217 27.7472 37.4162C25.6593 36.7272 23.5297 35.7667 22.0055 34.6393C21.3374 34.1382 18.122 28.2503 18.5604 26.9349C18.7484 26.3712 19.9385 24.6799 20.4187 24.3041C20.5857 24.1788 20.7736 24.1162 20.9615 24.1162C22.1516 24.1162 23.8846 26.3503 28.4989 28.2085C29.7308 28.7096 31.1297 29.1689 32.5286 29.5657Z" fill="#860B29"/>
<path d="M28.4779 16.1612C28.3943 15.7436 27.9976 15.3887 27.5592 15.3887C27.1416 15.3887 26.8702 15.7227 26.9328 16.1612L27.413 18.6876C27.4965 19.1052 27.8932 19.4601 28.3317 19.4601C28.7493 19.4601 29.0207 19.126 28.9581 18.6876L28.4779 16.1612Z" fill="#00114E"/>
<path d="M38.4985 16.015C38.415 15.6601 38.06 15.3887 37.726 15.3887C37.3919 15.3887 37.1622 15.6601 37.2458 16.015L37.7468 18.1447C37.8304 18.4997 38.1644 18.7711 38.5194 18.7711C38.8534 18.7711 39.0831 18.4997 38.9996 18.1447L38.4985 16.015Z" fill="#00114E"/>
<path d="M21.3154 22.2162C20.8978 22.6546 20.7517 23.0096 20.7308 23.3019C20.7099 23.636 20.8352 23.9074 21.0231 24.1579C22.1506 25.6195 24.0714 26.8513 26.2011 27.8535C29.3747 29.3359 33.0286 30.3173 35.2 30.7766C35.9308 30.9436 36.6824 31.0898 37.4549 31.1942C38.2275 31.2986 38.9791 31.3821 39.7516 31.4239C40.7121 31.4656 41.8813 31.2986 43.0088 31.0689C44.2198 30.8184 45.3681 30.4634 46.1406 30.1293C47.1011 29.7326 47.7274 29.0436 48.1659 28.1041C48.6461 27.1019 48.8967 25.7865 49.1263 24.2623C49.1681 23.9491 48.9593 23.6568 48.6461 23.6151C48.3329 23.5733 48.0615 23.7821 47.9989 24.0953C47.7901 25.4942 47.6022 26.7261 47.1846 27.6447C46.8714 28.3337 46.4121 28.8557 45.723 29.1689C45.0132 29.4821 43.9274 29.837 42.7791 30.0876C41.7351 30.3173 40.6286 30.4843 39.7516 30.4634C39.0209 30.4425 38.2901 30.3799 37.5593 30.2755C36.8286 30.1711 36.0769 30.0458 35.367 29.8997C33.2374 29.4821 29.6253 28.5634 26.5143 27.1645C24.4681 26.2458 22.6308 25.1184 21.5242 23.7403C21.3989 23.5942 21.3154 23.448 21.378 23.2184C21.4198 23.0513 21.5451 22.8634 21.7747 22.6129C21.9 22.4876 21.8791 22.2788 21.7539 22.1744C21.6286 22.0909 21.4198 22.0909 21.3154 22.2162Z" fill="#D66C55"/>
<path d="M23.5703 8.16382C23.5703 7.39129 24.2802 7.07811 24.9275 6.91108C25.3868 6.7858 25.8879 6.74404 26.3472 6.68141C27.4538 6.55613 28.6022 6.34734 29.6252 5.95064C30.2099 5.72097 30.6483 5.17811 30.7945 4.5935C30.8154 4.53086 30.878 4.17592 30.8362 4.11328C30.7736 4.05064 30.8989 4.38471 30.8989 4.40559C30.9615 4.57262 31.045 4.73965 31.0868 4.90668C31.2329 5.51218 31.4208 6.18031 31.3165 6.80668C31.2121 7.45393 30.5857 8.0803 30.0846 8.41437C30.0011 8.47701 28.9571 9.04074 29.3538 8.64404L23.5703 8.16382Z" fill="#001048"/>
<path fill-rule="evenodd" clip-rule="evenodd" d="M29.835 33.7621C29.1042 33.783 28.2691 34.5973 27.6636 35.6412C27.1834 36.4973 27.3295 37.2698 27.3295 37.2698C27.3295 37.2698 28.3317 37.6038 29.3548 37.8753C30.2735 38.1258 31.213 38.2929 31.2757 38.3346C33.9691 40.0049 36.4537 43.7214 39.4811 42.2808C40.4416 41.8214 42.1746 41.195 41.8822 40.0885C41.7987 39.7544 41.5691 39.4412 41.3394 39.3368C40.7339 39.0236 40.024 38.7104 39.5438 38.2093C38.6251 37.2071 37.3724 34.8896 35.9943 34.5973C35.535 34.5137 33.3636 33.6368 33.6768 35.2027C33.6768 35.2027 32.3614 33.7412 29.9394 33.7412C29.9185 33.7621 29.8768 33.7621 29.835 33.7621Z" fill="url(#paint1_linear_513_6581)"/>
<path opacity="0.5" fill-rule="evenodd" clip-rule="evenodd" d="M31.6306 38.5645C31.6932 37.7711 33.1339 35.5997 33.8229 36.0173C34.1152 36.1843 34.4075 36.3305 34.679 36.4975C34.8042 36.5601 34.8877 36.6436 35.013 36.7063C35.0339 36.7063 35.0548 36.7272 35.0548 36.7272C35.0548 36.7272 34.9713 36.5184 34.9295 36.414C34.846 36.2469 34.7834 35.9337 34.8251 35.7458C34.9504 35.3074 35.3471 35.0986 35.7856 35.0568C36.2031 35.0151 36.6834 35.0986 37.1218 35.2656C36.7669 34.9524 36.391 34.7019 36.0152 34.6392C35.5559 34.5557 33.3845 33.6788 33.6976 35.2447C33.6976 35.2447 32.3823 33.7832 29.9603 33.7832C29.9185 33.7832 29.8768 33.7832 29.835 33.7832C29.1042 33.8041 28.2691 34.6184 27.6636 35.6623C27.1834 36.5184 27.3295 37.2909 27.3295 37.2909C27.3295 37.2909 28.3317 37.625 29.3548 37.8964C30.2735 38.1469 31.213 38.314 31.2757 38.3557C31.4009 38.4184 31.5053 38.481 31.6306 38.5645Z" fill="#860B29"/>
<path d="M48.2905 24.5958C47.1213 24.0112 45.1795 24.22 44.0103 23.7189C43.8015 23.6354 43.2169 22.5288 43.1334 22.32C42.5488 21.0255 43.363 21.1299 44.3861 20.775C45.5345 20.3783 47.9147 21.1508 47.9147 21.1508C47.9147 21.1508 47.3301 20.6288 47.4762 20.5453C47.7894 20.42 48.9378 20.7541 49.2927 20.8585C49.5641 20.9211 49.94 21.0673 50.1487 21.2761C50.5454 21.6728 50.7751 22.5288 50.4828 23.0717C50.1487 23.6772 48.8334 24.22 48.2905 24.5958Z" fill="#00114E"/>
<path d="M25.638 8.3729C25.7006 8.26851 27.0369 7.05752 25.9094 6.78609C24.1973 6.36851 20.7732 5.19928 20.105 5.09489C19.4787 4.99049 18.3721 4.36412 16.2424 4.51027C15.0941 4.59379 13.7369 7.12016 12.3798 9.29158C11.4611 10.7949 9.99956 12.507 9.76989 12.7158C9.51934 12.9663 9.18528 13.1125 8.57979 13.0081C8.18308 12.9454 7.93253 12.6322 7.24352 12.7366C7.09737 12.7575 6.84682 14.0729 7.22264 15.0125C7.47319 15.6179 8.57978 16.3696 8.72594 16.4531C9.9578 17.0586 11.8996 17.2048 13.2358 17.2883C13.716 17.3092 20.5226 16.6828 21.0864 12.0059C21.4413 8.89488 25.4918 8.64433 25.638 8.3729Z" fill="#001048"/>
<path d="M6.88769 13.1964C6.74154 14.2404 6.97121 15.0546 7.40967 15.681C7.84813 16.3074 8.51626 16.7458 9.30967 17.0173C11.4811 17.7898 14.6965 17.3722 16.4921 16.725C18.0998 16.1404 19.6031 15.7228 20.5844 14.3239C20.8767 13.9063 21.1064 13.3008 21.3151 12.57C21.5866 11.6305 21.8162 10.503 22.1921 9.52168C22.5052 8.68652 22.902 7.97663 23.591 7.7052C24.0294 7.51729 24.5932 7.55905 25.303 7.83048C25.5954 7.93487 25.9294 7.78872 26.0338 7.49641C26.1382 7.20411 25.9921 6.87004 25.6997 6.76564C24.6558 6.36894 23.8206 6.38982 23.1734 6.66125C22.2129 7.03707 21.5657 7.97663 21.1272 9.12498C20.7514 10.1272 20.5009 11.2964 20.2294 12.2777C20.0624 12.8415 19.8954 13.3426 19.6657 13.6766C18.8305 14.8667 17.4943 15.159 16.1162 15.6601C14.5086 16.2447 11.6272 16.6415 9.70637 15.9524C9.14263 15.7437 8.66242 15.4513 8.34923 15.0129C8.05692 14.5953 7.93165 14.0316 8.01516 13.3217C8.05692 13.0085 7.84813 12.7371 7.53495 12.6953C7.22176 12.6744 6.92945 12.8832 6.88769 13.1964Z" fill="#264380"/>
<path d="M34.8864 6.66068C35.1996 6.53541 35.8677 6.15958 36.4941 5.88816C36.8073 5.742 37.0996 5.61673 37.2666 5.61673C38.3523 5.61673 39.5216 6.2431 40.3358 7.45409C40.7534 8.05958 41.004 8.76947 41.2337 9.45848C41.5051 10.2519 41.7765 11.0035 42.1941 11.609C42.4446 11.964 42.9249 12.7574 43.5303 13.3211C44.0314 13.8013 44.6369 14.0936 45.2216 14.0519C45.8271 13.9892 46.5161 13.5717 47.1216 12.3398C47.2677 12.0684 47.1424 11.7134 46.871 11.5881C46.5996 11.442 46.2446 11.5673 46.1194 11.8387C45.7644 12.5486 45.4721 12.8827 45.1172 12.9244C44.8249 12.9453 44.5534 12.7365 44.3029 12.5068C43.76 12.0057 43.3424 11.275 43.1128 10.9618C42.7369 10.4398 42.5282 9.77167 42.2776 9.08266C42.0062 8.31013 41.7139 7.49585 41.2337 6.80684C40.1688 5.26178 38.6446 4.48926 37.2249 4.48926C37.0161 4.48926 36.682 4.57277 36.3062 4.71893C35.6381 4.99036 34.7611 5.47057 34.4062 5.61673C34.1139 5.742 33.9886 6.05519 34.093 6.3475C34.26 6.6398 34.5941 6.78596 34.8864 6.66068Z" fill="#264380"/>
<path fill-rule="evenodd" clip-rule="evenodd" d="M74.1916 31.9218C74.1916 35.8109 71.0482 39.1068 66.9685 39.1068C62.8219 39.1068 59.8791 35.6132 59.8791 31.9218C59.8791 28.6918 62.2199 24.6049 67.0354 24.6049C71.0482 24.6049 74.1916 27.5712 74.1916 31.9218ZM94.5904 42.139V25.1323H98.2019V21.6386H94.5904V19.1997C94.5904 17.7495 95.6605 16.8266 98.2019 16.8266V13.333C95.928 13.333 94.791 13.3989 93.119 14.4536C91.447 15.5083 90.6444 17.0244 90.6444 19.1997V21.6386H88.8386V25.1323H90.6444V42.0731H94.5904V42.139ZM105.626 42.139V39.3705V30.933C105.626 26.1869 107.9 25.0663 112.18 25.0663V21.1113C109.839 21.0454 106.963 21.0454 104.756 24.4072C103.82 22.7592 102.148 21.6386 100.075 21.6386V25.1323C102.081 25.1323 101.68 27.2416 101.68 28.6259C101.68 34.4266 101.68 32.5809 101.68 39.3705V42.139H105.626ZM115.524 30.6034C115.725 27.6371 118.467 24.6049 122.212 24.6049C125.958 24.6049 128.767 27.5712 128.9 30.6034H115.524ZM132.779 33.5697C132.846 33.306 132.913 32.2514 132.913 31.5922C132.846 25.5937 127.964 21.1113 122.346 21.1113C116.527 21.1113 111.712 25.7255 111.712 31.8559C111.712 37.6566 116.394 42.6663 122.279 42.6663C125.356 42.6663 129.77 41.1502 131.91 36.4701H127.83C126.76 37.9203 124.821 39.1727 122.413 39.1727C119.805 39.1727 116.594 37.5248 115.591 33.5697H132.779ZM85.0933 14.7832C85.0933 21.9682 85.0933 29.0873 85.0933 36.2723C85.0933 37.7225 86.1634 38.6454 88.7048 38.6454V42.139C86.4309 42.139 85.3608 42.0072 83.6219 41.0184C82.0167 39.9637 81.1473 38.4476 81.1473 36.2723C81.1473 29.0873 81.1473 21.9682 81.1473 14.7832H85.0933ZM152.777 31.9218C152.777 35.8109 149.633 39.1068 145.554 39.1068C141.407 39.1068 138.464 35.6132 138.464 31.9218C138.464 28.6918 140.805 24.6049 145.621 24.6049C149.567 24.6049 152.777 27.5712 152.777 31.9218ZM156.388 36.2723C156.388 37.7225 157.459 38.6454 160 38.6454V42.139C157.726 42.139 156.656 42.0072 154.917 41.0184C154.048 40.4251 153.446 39.766 152.978 38.909C152.509 39.4364 152.041 39.9637 151.64 40.2933C150.035 41.8094 147.761 42.6004 145.286 42.6004C138.397 42.6004 134.451 37.327 134.451 31.9218C134.451 26.912 137.929 21.0454 145.286 21.0454C148.162 21.0454 150.837 22.2319 152.309 24.1435H152.376V14.7832H156.255C156.388 22.5615 156.388 29.0873 156.388 36.2723ZM78.0039 42.139V21.6386H74.1248V24.539H74.0579C72.5865 22.2978 69.9113 21.1113 67.0354 21.1113C59.5447 21.1113 56 26.978 56 31.9877C56 37.3929 60.0129 42.6663 67.0354 42.6663C69.8444 42.6663 72.5865 41.4798 74.0579 38.975H74.1248V42.139H78.0039Z" fill="white"/>
<defs>
<linearGradient id="paint0_linear_513_6581" x1="23.0947" y1="9.49554" x2="23.0947" y2="65.0178" gradientUnits="userSpaceOnUse">
<stop stop-color="#FBBC8E"/>
<stop offset="1" stop-color="#ED6A51"/>
</linearGradient>
<linearGradient id="paint1_linear_513_6581" x1="33.0393" y1="36.8741" x2="39.1636" y2="41.5739" gradientUnits="userSpaceOnUse">
<stop stop-color="#FF7A7A"/>
<stop offset="1" stop-color="#FFC19F"/>
</linearGradient>
</defs>
</svg>
