<svg width="24" height="24" viewBox="0 0 24 24" fill="none" xmlns="http://www.w3.org/2000/svg">
<path d="M4.98906 18.7506C4.98906 18.7506 7.49969 17.2506 11.9997 17.2506C16.4997 17.2506 19.0103 18.7506 19.0103 18.7506L22.4791 8.12027C22.5044 8.04806 22.5075 7.96992 22.488 7.89592C22.4685 7.82191 22.4274 7.75543 22.3698 7.70502C22.3122 7.65461 22.2409 7.62258 22.165 7.61304C22.089 7.60351 22.012 7.61691 21.9438 7.65152L16.9347 10.149C16.848 10.1919 16.7483 10.2006 16.6554 10.1736C16.5626 10.1465 16.4832 10.0855 16.4331 10.0028L12.3297 3.18809C12.2954 3.13184 12.2472 3.08535 12.1897 3.0531C12.1322 3.02085 12.0675 3.00391 12.0016 3.00391C11.9357 3.00391 11.8709 3.02085 11.8134 3.0531C11.756 3.08535 11.7078 3.13184 11.6734 3.18809L7.56625 10.0056C7.51629 10.0887 7.43679 10.15 7.34364 10.1771C7.25049 10.2042 7.15054 10.1952 7.06375 10.1518L2.06219 7.65621C1.99389 7.62181 1.91688 7.60855 1.84102 7.61815C1.76515 7.62775 1.69387 7.65976 1.63629 7.71009C1.57871 7.76042 1.53746 7.82678 1.5178 7.90069C1.49814 7.97459 1.50098 8.05268 1.52594 8.12496L4.98906 18.7506Z" stroke="#5973FE" stroke-linecap="round" stroke-linejoin="round"/>
<path d="M8.25 14.5697C10.7318 14.1434 13.2682 14.1434 15.75 14.5697" stroke="#5973FE" stroke-linecap="round" stroke-linejoin="round"/>
</svg>
